<svg xmlns="http://www.w3.org/2000/svg" viewBox="0 0 720 128" fill="none">
  <g stroke-linecap="square" stroke-linejoin="miter">
    <path d="M0 18h720M0 110h720" stroke="#d8b06a" opacity=".7"/>
    <path d="M0 28h720M0 100h720" stroke="#a33a34" stroke-width="4" opacity=".75"/>
    <g stroke="#d8b06a" stroke-width="2">
      <path d="m24 64 34-30 34 30-34 30-34-30Zm92 0 34-30 34 30-34 30-34-30Zm92 0 34-30 34 30-34 30-34-30Zm92 0 34-30 34 30-34 30-34-30Zm92 0 34-30 34 30-34 30-34-30Zm92 0 34-30 34 30-34 30-34-30Zm92 0 34-30 34 30-34 30-34-30Zm92 0 34-30 34 30-34 30-34-30Z"/>
      <path d="m41 64 17-15 17 15-17 15-17-15Zm92 0 17-15 17 15-17 15-17-15Zm92 0 17-15 17 15-17 15-17-15Zm92 0 17-15 17 15-17 15-17-15Zm92 0 17-15 17 15-17 15-17-15Zm92 0 17-15 17 15-17 15-17-15Zm92 0 17-15 17 15-17 15-17-15Zm92 0 17-15 17 15-17 15-17-15Z" opacity=".65"/>
    </g>
    <path d="M0 64h720" stroke="#f1ddac" opacity=".35"/>
  </g>
</svg>
